<svg width="70" height="50" viewBox="0 0 70 50" fill="none" xmlns="http://www.w3.org/2000/svg">
<path fill-rule="evenodd" clip-rule="evenodd" d="M0.183594 2.78398C0.183594 1.24643 1.43002 0 2.96757 0H66.5663C68.1038 0 69.3503 1.24643 69.3503 2.78398V47.216C69.3503 48.7536 68.1038 50 66.5663 50H2.96757C1.43002 50 0.183594 48.7536 0.183594 47.216V2.78398ZM5.1822 13.196C5.1822 12.8116 5.49381 12.5 5.87819 12.5H63.6529C64.0372 12.5 64.3489 12.8116 64.3489 13.196V44.304C64.3489 44.6884 64.0373 45 63.6529 45H5.8782C5.49381 45 5.1822 44.6884 5.1822 44.304V13.196ZM6.84886 6.66691C7.76934 6.66691 8.51553 5.92071 8.51553 5.00024C8.51553 4.07976 7.76934 3.33357 6.84886 3.33357C5.92839 3.33357 5.1822 4.07976 5.1822 5.00024C5.1822 5.92071 5.92839 6.66691 6.84886 6.66691ZM13.5165 5.00024C13.5165 5.92071 12.7703 6.66691 11.8498 6.66691C10.9293 6.66691 10.1831 5.92071 10.1831 5.00024C10.1831 4.07976 10.9293 3.33357 11.8498 3.33357C12.7703 3.33357 13.5165 4.07976 13.5165 5.00024ZM16.8484 6.66691C17.7689 6.66691 18.5151 5.92071 18.5151 5.00024C18.5151 4.07976 17.7689 3.33357 16.8484 3.33357C15.9279 3.33357 15.1817 4.07976 15.1817 5.00024C15.1817 5.92071 15.9279 6.66691 16.8484 6.66691Z" fill="white"/>
</svg>
