<svg width="37" height="50" viewBox="0 0 37 50" fill="none" xmlns="http://www.w3.org/2000/svg">
<path fill-rule="evenodd" clip-rule="evenodd" d="M2.96758 50C1.43003 50 0.183594 48.7536 0.183594 47.216V2.78398C0.183594 1.24643 1.43002 0 2.96757 0H33.5442C35.0817 0 36.3282 1.24643 36.3282 2.78398V21.8063C36.2566 21.8227 36.1856 21.8415 36.1151 21.8626C35.6985 21.9876 35.3106 22.1935 34.9736 22.4684C34.7854 22.6219 34.6151 22.7953 34.4655 22.9852C34.2691 23.2344 34.3772 23.5867 34.6565 23.7371L36.3282 24.6371V26.9444L33.7321 25.5069C33.4652 25.3591 33.1293 25.4457 32.9674 25.7043C29.9149 30.5806 24.235 39.7599 23.8211 40.8558C23.4876 41.7388 23.8069 43.9446 24.1419 45.5889C24.2757 46.2458 24.958 46.62 25.5852 46.3835C26.9479 45.8697 28.6999 45.1209 29.4321 44.504C30.1527 43.897 33.5087 38.1239 36.3282 33.1267V36.7853V47.216C36.3282 48.7536 35.0817 50 33.5442 50H2.96758ZM4.51172 7.3569C4.51172 6.63987 5.09299 6.05859 5.81002 6.05859H29.1795C29.8966 6.05859 30.4778 6.63987 30.4778 7.3569C30.4778 8.07393 29.8966 8.65521 29.1795 8.65521H5.81002C5.09299 8.65521 4.51172 8.07393 4.51172 7.3569ZM5.81002 11.252C5.09299 11.252 4.51172 11.8332 4.51172 12.5503C4.51172 13.2673 5.09299 13.8486 5.81003 13.8486H21.3897C22.1067 13.8486 22.688 13.2673 22.688 12.5503C22.688 11.8332 22.1067 11.252 21.3897 11.252H5.81002ZM4.51172 17.7436C4.51172 17.0266 5.09299 16.4453 5.81002 16.4453H21.3897C22.1067 16.4453 22.688 17.0266 22.688 17.7436C22.688 18.4607 22.1067 19.0419 21.3897 19.0419H5.81003C5.09299 19.0419 4.51172 18.4607 4.51172 17.7436ZM12.3103 25.1704C9.58985 24.7521 7.47797 26.4689 6.17303 28.2441C4.83804 30.0602 3.97075 32.3978 3.76031 34.3395C3.56754 36.1182 3.60269 38.2718 4.15099 40.1723C4.69461 42.0566 5.86321 44.0407 8.17457 44.7376C9.32648 45.085 10.3845 44.9829 11.3006 44.5388C11.9929 44.2032 12.5211 43.7117 12.9174 43.2611C12.9614 43.4806 13.0165 43.7032 13.0869 43.9153C13.2838 44.5085 13.7762 45.5373 14.997 45.8501C15.7961 46.0549 16.515 45.9228 17.1048 45.6204C17.3513 45.4941 17.5678 45.3403 17.7462 45.1953C17.7739 45.2457 17.8028 45.2986 17.8332 45.3543L17.8497 45.3845L17.8497 45.3847C17.9605 45.5876 18.0897 45.8246 18.2281 46.059C18.5073 46.5319 18.9085 47.1463 19.476 47.6287C20.0927 48.153 20.9376 48.5446 21.9821 48.4472C22.9296 48.3589 23.6261 47.5192 23.5378 46.5717C23.4512 45.6429 22.6427 44.9553 21.7183 45.0116L21.7082 45.0032C21.5927 44.905 21.4274 44.6995 21.1957 44.307C21.0876 44.1239 20.9832 43.9326 20.8649 43.7157L20.8583 43.7037C20.7436 43.4934 20.6112 43.2509 20.4731 43.0224C20.2486 42.6507 19.8006 41.9372 19.0541 41.5546C18.706 41.3761 18.3065 41.2633 17.8713 41.27C17.4396 41.2767 17.0737 41.3995 16.7879 41.546C16.5686 41.6584 16.3683 41.8035 16.2027 41.9401C16.1991 41.9088 16.1954 41.8767 16.1916 41.8437C16.1885 41.8162 16.1854 41.7882 16.1822 41.7595L16.1698 41.6462C16.1234 41.2188 16.0558 40.5952 15.895 40.0805C15.8039 39.7888 15.6345 39.3602 15.2873 38.9852C14.8857 38.5515 14.3147 38.2677 13.6478 38.2677C13.0025 38.2677 12.5008 38.5335 12.1698 38.7806C11.8507 39.0188 11.6014 39.3054 11.4241 39.5274C11.256 39.7379 11.0901 39.9715 10.9513 40.1671L10.9512 40.1672L10.9187 40.2129C10.7619 40.4336 10.6241 40.6255 10.481 40.8043C10.1851 41.174 9.96687 41.3556 9.79743 41.4378C9.69169 41.489 9.52803 41.5463 9.16946 41.4382C8.45986 41.2242 7.85143 40.5666 7.4621 39.2171C7.07745 37.8838 7.02375 36.2115 7.1864 34.7109C7.33136 33.3733 7.97455 31.6118 8.9497 30.2852C9.95491 28.9177 10.9528 28.4483 11.7865 28.5765C12.5942 28.7007 13.0284 29.1141 13.3095 29.6336C13.6276 30.2217 13.7222 30.9275 13.7034 31.3517C13.6612 32.3024 14.3977 33.1073 15.3484 33.1495C16.2991 33.1916 17.104 32.4551 17.1461 31.5044C17.1866 30.5926 17.0145 29.2398 16.3405 27.9938C15.6294 26.6793 14.3458 25.4834 12.3103 25.1704ZM12.6027 41.0991C12.5999 41.0907 12.5983 41.0869 12.5982 41.0871C12.5981 41.0872 12.5986 41.0886 12.5996 41.0913C12.6003 41.0932 12.6013 41.0958 12.6027 41.0991ZM16.3782 42.886C16.3813 42.8934 16.3829 42.8966 16.383 42.8964C16.383 42.8963 16.3826 42.8952 16.3818 42.8933C16.381 42.8916 16.3798 42.8891 16.3782 42.886Z" fill="white"/>
</svg>
