<svg width="53" height="50" viewBox="0 0 53 50" fill="none" xmlns="http://www.w3.org/2000/svg">
<path d="M0.183594 45.4736C0.183594 41.6297 3.29967 38.5137 7.14354 38.5137H9.43968C13.2835 38.5137 16.3996 41.6297 16.3996 45.4736V49.304C16.3996 49.6884 16.088 50 15.7036 50H0.87959C0.495202 50 0.183594 49.6884 0.183594 49.304V45.4736Z" fill="white"/>
<path d="M36.6709 45.4736C36.6709 41.6297 39.787 38.5137 43.6308 38.5137H45.927C49.7709 38.5137 52.8869 41.6297 52.8869 45.4736V49.304C52.8869 49.6884 52.5753 50 52.1909 50H37.3669C36.9825 50 36.6709 49.6884 36.6709 49.304V45.4736Z" fill="white"/>
<circle cx="8.29146" cy="29.7294" r="6.08101" fill="white"/>
<circle cx="44.7778" cy="29.7294" r="6.08101" fill="white"/>
<path fill-rule="evenodd" clip-rule="evenodd" d="M0.879589 0C0.495201 0 0.183594 0.311607 0.183594 0.695995V16.8714C0.183594 17.2558 0.495201 17.5674 0.879588 17.5674H4.23647V19.9409C4.23647 20.561 4.98616 20.8715 5.42461 20.4331L8.29032 17.5674H21.7846C22.169 17.5674 22.4806 17.2558 22.4806 16.8714V0.695995C22.4806 0.311608 22.169 0 21.7846 0H0.879589ZM3.18359 5C3.18359 4.44772 3.63131 4 4.18359 4H16.1836C16.7359 4 17.1836 4.44772 17.1836 5C17.1836 5.55228 16.7359 6 16.1836 6H4.18359C3.63131 6 3.18359 5.55228 3.18359 5ZM4.18359 8C3.63131 8 3.18359 8.44771 3.18359 9C3.18359 9.55229 3.63131 10 4.18359 10H16.1836C16.7359 10 17.1836 9.55229 17.1836 9C17.1836 8.44771 16.7359 8 16.1836 8H4.18359Z" fill="white"/>
<path fill-rule="evenodd" clip-rule="evenodd" d="M52.1899 0C52.5743 0 52.8859 0.311607 52.8859 0.695995V16.8714C52.8859 17.2558 52.5743 17.5674 52.1899 17.5674H48.833V19.9405C48.833 20.5605 48.0833 20.871 47.6449 20.4326L44.7797 17.5674H31.2849C30.9005 17.5674 30.5889 17.2558 30.5889 16.8714V0.695995C30.5889 0.311608 30.9005 0 31.2849 0H52.1899ZM36.1836 5C36.1836 4.44772 36.6313 4 37.1836 4H49.1836C49.7359 4 50.1836 4.44772 50.1836 5C50.1836 5.55228 49.7359 6 49.1836 6H37.1836C36.6313 6 36.1836 5.55228 36.1836 5ZM35.1836 8C34.6313 8 34.1836 8.44771 34.1836 9C34.1836 9.55229 34.6313 10 35.1836 10H49.1836C49.7359 10 50.1836 9.55229 50.1836 9C50.1836 8.44771 49.7359 8 49.1836 8H35.1836Z" fill="white"/>
</svg>
